<?xml version="1.0" encoding="utf-8"?>
<!-- Generator: Adobe Illustrator 20.1.0, SVG Export Plug-In . SVG Version: 6.00 Build 0)  -->
<svg version="1.1" id="Layer_1" xmlns="http://www.w3.org/2000/svg" xmlns:xlink="http://www.w3.org/1999/xlink" x="0px" y="0px"
	 viewBox="0 0 1019 196.6" style="enable-background:new 0 0 1019 196.6;" xml:space="preserve">
<style type="text/css">
	.st0{fill:#91DC5A;}
	.st1{fill:#7AC943;}
	.st2{fill:#FF9F19;}
	.st3{fill:#7FB335;}
	.st4{fill:#F28618;}
	.st5{fill:#E67400;}
	.st6{fill:#7AC943;stroke:#FFFFFF;stroke-width:8;stroke-miterlimit:10;}
	.st7{enable-background:new    ;}
	.st8{fill:#FF931E;}
</style>
<title>gazar-logo</title>
<path class="st0" d="M30.3,24.8l16.9,27.6L12.3,44c-5.4-1.1-10.7,2.4-11.8,7.8C-0.4,57,2.7,62,7.7,63.5l34.8,8.4L14.9,88.8
	c-4.6,3-5.9,9.3-2.8,13.9c2.9,4.4,8.7,5.8,13.2,3.2l48.2-29.5c4.7-2.9,6.2-9,3.3-13.7L47.3,14.3c-3-4.6-9.2-5.9-13.8-2.9
	C29,14.3,27.6,20.2,30.3,24.8z"/>
<path class="st1" d="M30.3,24.8l16.9,27.6L12.3,44c-5.4-1.1-10.7,2.4-11.8,7.8C-0.4,57,2.7,62,7.7,63.5l34.8,8.4L14.9,88.8
	c-4.6,3-5.9,9.3-2.8,13.9c2.9,4.4,8.7,5.8,13.2,3.2l48.2-29.5c4.7-2.9,6.2-9,3.3-13.7L47.3,14.3c-3-4.6-9.2-5.9-13.8-2.9
	C29,14.3,27.6,20.2,30.3,24.8z"/>
<path class="st2" d="M56.9,65c-10.3,42.8,7.5,84,39.6,91.8c3.8,0.9,11.3,2.2,21.6,3.6c5.8,0.8,12.5,1.6,19.9,2.5
	c17.2,2,38.2,4,60.4,5.6c6.6,0.5,13.3,1,20.2,1.4c56.6,3.3,160.7,8.3,168.8-25.2c5.9-24.4-41.8-52.9-83.3-73.6
	c-6.3-3.2-12.5-6.1-18.4-8.9c-23.5-11.1-46.8-21.3-74.5-32.6c-5.9-2.4-18.7-7.5-18.7-7.5C180.8,17.5,146,4.2,133.9,1.3
	C100.7-6.7,67,22.9,56.9,65z"/>
<path class="st3" d="M30.3,24.8l16.9,27.6L12.3,44c-5.3-1.3-10.7,2-12,7.3L78,70.1c0.6-2.6,0.2-5.3-1.2-7.5L47.3,14.3
	c-3-4.6-9.2-5.9-13.8-2.9C29,14.3,27.6,20.2,30.3,24.8z"/>
<path class="st4" d="M133.9,1.3C146,4.2,180.8,17.5,192.4,22c5.5,2.1,12.7,5,18.7,7.4c27.7,11.3,51,21.5,74.5,32.6
	c5.8,2.8,12.1,5.7,18.4,8.9c41.6,20.7,89.2,49.2,83.3,73.6L56.9,65C67,22.9,100.7-6.7,133.9,1.3z"/>
<path class="st4" d="M137.1,123.6c2.6,0.6,4.8,2.3,6.2,4.5c1.4,2.3,1.8,5,1.1,7.5l-6.5,27.2c-7.4-0.8-14.1-1.7-19.9-2.5l7.1-29.4
	c1.2-5.3,6.6-8.7,11.9-7.4C137.1,123.6,137.1,123.6,137.1,123.6z"/>
<path class="st4" d="M219.6,122.9c2.6,0.6,4.8,2.3,6.2,4.5c1.4,2.3,1.8,5,1.1,7.5l-8.4,34.9c-6.8-0.4-13.6-0.9-20.2-1.4l9.2-38.2
	C208.8,124.9,214.2,121.6,219.6,122.9C219.6,122.9,219.6,122.9,219.6,122.9z"/>
<path class="st5" d="M192.4,22c0,0,10.6,4.1,18.7,7.4l-6,24.8c-0.8,5.5-5.9,9.2-11.4,8.4c-5.5-0.8-9.2-5.9-8.4-11.4
	c0.1-0.6,0.2-1.2,0.4-1.7L192.4,22z"/>
<path class="st5" d="M285.6,62.1c5.8,2.8,12.1,5.7,18.4,8.9l-6.3,26.2c-0.8,5.5-5.9,9.2-11.4,8.4c-5.5-0.8-9.2-5.9-8.4-11.4
	c0.1-0.6,0.2-1.2,0.4-1.7L285.6,62.1z"/>
<ellipse transform="matrix(0.971 -0.239 0.239 0.971 -30.4823 74.2783)" class="st6" cx="291" cy="162.8" rx="28.3" ry="28.3"/>
<ellipse transform="matrix(0.971 -0.239 0.239 0.971 -34.7221 39.3183)" class="st6" cx="144.7" cy="162.8" rx="29.8" ry="29.8"/>
<g class="st7">
	<path class="st1" d="M486.1,81.8l-7.9,64.9c-0.5,3.9-1.1,7.2-1.7,10.1s-1.3,5.3-2.1,7.2c-1.6,4-4,7.5-7.1,10.3
		c-6.1,5.5-14,8.2-23.8,8.2c-10.1,0-18.2-2.6-24.5-7.9c-3.2-2.6-5.4-5.7-6.7-9c-1.3-3.1-1.9-7.5-1.9-13.1h14.6
		c0.4,6.1,1.9,10.5,4.6,13.2c2.7,2.8,7,4.1,12.7,4.1c6.2,0,10.9-1.7,14.2-5c3.2-3.3,5.3-8.6,6.2-15.8l1.1-8.8
		c-6.4,4.9-13.1,7.3-20.1,7.3c-8.8,0-16-3-21.7-9c-5.7-6.1-8.5-13.7-8.5-22.8c0-10.3,3.3-18.8,9.9-25.5c6.7-6.8,15-10.2,25-10.2
		c4.8,0,8.7,0.7,11.6,2.1c3.2,1.4,6.6,3.9,10,7.5l1-8H486.1z M468.8,112.4c0-5.8-1.8-10.5-5.3-14.1c-3.6-3.6-8.2-5.4-13.9-5.4
		c-6,0-10.9,2.2-14.9,6.6c-3.9,4.3-5.9,9.8-5.9,16.3c0,5.7,1.7,10.4,5.1,14.1c3.4,3.5,7.9,5.3,13.5,5.3c6.2,0,11.4-2.1,15.4-6.4
		C466.8,124.4,468.8,118.9,468.8,112.4z"/>
</g>
<g class="st7">
	<path class="st1" d="M570.9,81.8l-7.9,64.4h-15.1l0.9-7c-6.5,5.7-13.2,8.5-20.1,8.5c-8.5,0-15.5-2.9-20.8-8.7
		c-5.4-5.8-8.1-13.3-8.1-22.5c0-10.6,3.1-19.3,9.2-26.1c6.2-6.8,14.2-10.2,24-10.2c4.6,0,8.5,0.8,11.8,2.3c3.3,1.5,6.6,4.1,10,7.8
		l1-8.5H570.9z M552.5,112.2c0-5.7-1.6-10.3-4.9-13.9c-3.3-3.6-7.5-5.4-12.7-5.4c-5.7,0-10.4,2.2-14.2,6.6
		c-3.8,4.5-5.7,9.9-5.7,16.4c0,5.7,1.6,10.3,4.8,13.9c3.2,3.6,7.3,5.4,12.3,5.4c5.6,0,10.4-2.3,14.4-6.8
		C550.5,123.8,552.5,118.4,552.5,112.2z"/>
	<path class="st1" d="M644.6,132.2l-1.7,14h-66.2l43.1-50.4h-32.3l1.7-14h60.7l-43.4,50.4H644.6z"/>
	<path class="st1" d="M727.8,81.8l-7.9,64.4h-15.1l0.9-7c-6.5,5.7-13.2,8.5-20.1,8.5c-8.5,0-15.5-2.9-20.8-8.7
		c-5.4-5.8-8.1-13.3-8.1-22.5c0-10.6,3.1-19.3,9.2-26.1c6.2-6.8,14.2-10.2,24-10.2c4.6,0,8.5,0.8,11.8,2.3c3.3,1.5,6.6,4.1,10,7.8
		l1-8.5H727.8z M709.4,112.2c0-5.7-1.6-10.3-4.9-13.9c-3.3-3.6-7.5-5.4-12.7-5.4c-5.7,0-10.4,2.2-14.2,6.6
		c-3.8,4.5-5.7,9.9-5.7,16.4c0,5.7,1.6,10.3,4.8,13.9c3.2,3.6,7.3,5.4,12.3,5.4c5.6,0,10.4-2.3,14.4-6.8
		C707.4,123.8,709.4,118.4,709.4,112.2z"/>
</g>
<g class="st7">
	<path class="st1" d="M764,81.8l-0.7,5.5c5.1-4.8,10.3-7.2,15.4-7.2c4.6,0,8.7,1.7,12.4,5l-9.6,12.4c-2.8-2.4-5.6-3.6-8.3-3.6
		c-1.9,0-3.6,0.4-5.1,1.1c-1.5,0.8-2.7,1.9-3.8,3.6c-1.1,1.6-2,3.7-2.7,6.3c-0.7,2.6-1.3,5.6-1.7,9.2l-4,32.1H741l7.9-64.4H764z"/>
</g>
<g class="st7">
	<path class="st8" d="M807.8,138.7c0,2.4-0.9,4.5-2.8,6.3c-1.9,1.8-4,2.7-6.5,2.7c-2.5,0-4.6-0.9-6.4-2.7s-2.7-4.1-2.7-6.7
		c0-2.6,0.8-4.7,2.5-6.4c1.7-1.7,3.8-2.6,6.2-2.6c2.7,0,5,0.9,6.8,2.8C806.8,133.9,807.8,136.2,807.8,138.7z"/>
	<path class="st8" d="M900.8,81.8l-7.9,64.4h-15.1l0.9-7c-6.5,5.7-13.2,8.5-20.1,8.5c-8.5,0-15.5-2.9-20.8-8.7
		c-5.4-5.8-8.1-13.3-8.1-22.5c0-10.6,3.1-19.3,9.2-26.1c6.2-6.8,14.2-10.2,24-10.2c4.6,0,8.5,0.8,11.8,2.3c3.3,1.5,6.6,4.1,10,7.8
		l1-8.5H900.8z M882.4,112.2c0-5.7-1.6-10.3-4.9-13.9c-3.3-3.6-7.5-5.4-12.7-5.4c-5.7,0-10.4,2.2-14.2,6.6
		c-3.8,4.5-5.7,9.9-5.7,16.4c0,5.7,1.6,10.3,4.8,13.9c3.2,3.6,7.3,5.4,12.3,5.4c5.6,0,10.4-2.3,14.4-6.8
		C880.4,123.8,882.4,118.4,882.4,112.2z"/>
	<path class="st8" d="M937.5,81.8l-0.7,6c5.1-5.1,11-7.7,17.7-7.7c4.1,0,7.2,0.8,9.4,2.3c2.2,1.4,4.1,4.1,5.9,8
		c6.4-6.8,13.3-10.2,20.6-10.2c12.8,0,19.1,5.9,19.1,17.6c0,1.2-0.1,2.8-0.3,5c-0.2,2.1-0.5,4.8-0.9,7.9l-4.4,35.5h-15.1l4.6-37.3
		c0.4-3.5,0.6-6,0.6-7.7c0-5.6-2.8-8.4-8.5-8.4c-2.2,0-4.2,0.3-5.8,1c-1.6,0.7-3,1.7-4.2,3.1c-1.2,1.4-2.1,3.2-2.9,5.4
		c-0.8,2.2-1.3,4.8-1.7,7.9l-4.4,36h-15.1l4.7-38.2c0.4-3.5,0.6-5.8,0.6-7.1c0-5.3-2.9-8-8.7-8c-8.4,0-13.3,5.8-14.7,17.4l-4.4,35.9
		H914l7.9-64.4H937.5z"/>
</g>
</svg>
